<svg id="Capa_1" data-name="Capa 1" xmlns="http://www.w3.org/2000/svg" viewBox="0 0 101 76"><defs><style>.cls-1{fill:#b20023;}.cls-2{fill:#fff;}.cls-3{fill:#006725;}.cls-4{fill:#3e333c;}.cls-5{fill:#12093a;}</style></defs><title>claro shopMesa de trabajo 14</title><rect class="cls-1" x="0.69" y="0.61" width="31.95" height="31.95" rx="2.61" ry="2.61"/><rect class="cls-1" x="34.48" y="0.61" width="31.95" height="31.95" rx="2.61" ry="2.61"/><rect class="cls-1" x="68.26" y="0.61" width="31.95" height="31.95" rx="2.61" ry="2.61"/><path class="cls-2" d="M8.39,25.9l2.79-4.11a7,7,0,0,0,4.6,1.72c2.45,0,3.77-1.72,4-4.48a6.48,6.48,0,0,1-4.54,1.75c-4.17,0-7.21-2.58-7.21-6.78v-.06c0-4.75,3.65-7.82,8.56-7.82a8.41,8.41,0,0,1,6.59,2.51c1.56,1.53,2.57,4,2.57,7.94v.06c0,7-3.49,11.8-9.93,11.8A11.58,11.58,0,0,1,8.39,25.9M19.92,13.73v-.06a2.86,2.86,0,0,0-3.07-2.91,2.78,2.78,0,0,0-3,2.88v.06a2.81,2.81,0,0,0,3.07,2.82,2.77,2.77,0,0,0,3-2.79"/><polygon class="cls-2" points="48.57 11.15 44.95 11.98 43.82 7.38 50.1 5.6 54.43 5.6 54.43 27.22 48.57 27.22 48.57 11.15"/><polygon class="cls-2" points="83.09 11.15 79.47 11.98 78.34 7.38 84.62 5.6 88.94 5.6 88.94 27.22 83.09 27.22 83.09 11.15"/><rect class="cls-2" x="33.87" y="37.25" width="33.21" height="2.86"/><rect class="cls-3" x="0.72" y="37.25" width="33.21" height="2.86"/><rect class="cls-1" x="67.08" y="37.25" width="33.21" height="2.86"/><polygon class="cls-4" points="0.72 44.45 8.19 44.45 8.19 46.64 3.27 46.64 3.27 48.04 7.72 48.04 7.72 50.07 3.27 50.07 3.27 51.54 8.25 51.54 8.25 53.73 0.72 53.73 0.72 44.45"/><polygon class="cls-4" points="9.56 44.45 12.28 44.45 14.5 48.04 16.71 44.45 19.43 44.45 19.43 53.73 16.87 53.73 16.87 48.4 14.5 52.03 14.44 52.03 12.08 48.43 12.08 53.73 9.56 53.73 9.56 44.45"/><polygon class="cls-4" points="21.07 44.45 28.53 44.45 28.53 46.64 23.61 46.64 23.61 48.04 28.07 48.04 28.07 50.07 23.61 50.07 23.61 51.54 28.6 51.54 28.6 53.73 21.07 53.73 21.07 44.45"/><path class="cls-4" d="M29.91,44.45H34.3a4.05,4.05,0,0,1,3,1,2.88,2.88,0,0,1,.82,2.16v0a2.93,2.93,0,0,1-1.91,2.85l2.21,3.23h-3l-1.87-2.81H32.48v2.81H29.91Zm4.27,4.45c.87,0,1.38-.42,1.38-1.1v0c0-.73-.53-1.1-1.39-1.1H32.48V48.9Z"/><path class="cls-4" d="M39.13,49.12v0a4.82,4.82,0,0,1,5-4.83,5.42,5.42,0,0,1,3.77,1.35l-1.51,1.81a3.27,3.27,0,0,0-2.24-.87,2.44,2.44,0,0,0-2.37,2.55v0a2.45,2.45,0,0,0,2.52,2.57,2.62,2.62,0,0,0,1.48-.39V50.19H43.94V48.31H48.2v4.17a6.27,6.27,0,0,1-4,1.43,4.77,4.77,0,0,1-5.05-4.8"/><polygon class="cls-4" points="49.63 44.45 57.1 44.45 57.1 46.64 52.18 46.64 52.18 48.04 56.63 48.04 56.63 50.07 52.18 50.07 52.18 51.54 57.16 51.54 57.16 53.73 49.63 53.73 49.63 44.45"/><polygon class="cls-4" points="58.48 44.45 60.88 44.45 64.69 49.35 64.69 44.45 67.24 44.45 67.24 53.73 64.99 53.73 61.02 48.64 61.02 53.73 58.48 53.73 58.48 44.45"/><path class="cls-4" d="M68.56,49.12v0a4.77,4.77,0,0,1,4.89-4.83,4.54,4.54,0,0,1,3.94,1.94l-1.94,1.5a2.48,2.48,0,0,0-2-1.09,2.3,2.3,0,0,0-2.21,2.45v0a2.29,2.29,0,0,0,2.21,2.48,2.54,2.54,0,0,0,2.09-1.13l1.94,1.38a4.89,4.89,0,0,1-8.89-2.7"/><rect class="cls-4" x="78.61" y="44.45" width="2.59" height="9.28"/><path class="cls-4" d="M86.1,44.38h2.48l4,9.35H89.77l-.67-1.66H85.52l-.66,1.66h-2.7Zm2.25,5.69-1-2.64-1,2.64Z"/><path class="cls-4" d="M92.59,52.35,94,50.64a4.79,4.79,0,0,0,3,1.11c.69,0,1.06-.24,1.06-.64v0c0-.39-.31-.6-1.56-.89-2-.45-3.5-1-3.5-2.92v0c0-1.72,1.37-3,3.59-3a5.83,5.83,0,0,1,3.82,1.23l-1.28,1.82a4.66,4.66,0,0,0-2.6-.91c-.62,0-.93.26-.93.59v0c0,.43.32.61,1.6.9,2.14.46,3.46,1.15,3.46,2.89v0c0,1.9-1.5,3-3.75,3a6.49,6.49,0,0,1-4.35-1.54"/><polygon class="cls-1" points="8.69 57.74 14.47 57.74 14.47 63.52 20.24 63.52 20.24 69.29 14.47 69.29 14.47 75.06 8.69 75.06 8.69 69.29 2.92 69.29 2.92 63.52 8.69 63.52 8.69 57.74"/><path class="cls-5" d="M51.31,60.59c-5.09,0-10.74,3-10.61,6.09a2.82,2.82,0,0,0,3,2.82v-.22a48,48,0,0,1,7.36-.52,57.21,57.21,0,0,1,7.75.52v.21c.36,0,2.93-.17,3-2.76.1-3.49-5.45-6.15-10.53-6.15"/><path class="cls-5" d="M44.05,72.54c.21.39.05,1,7.1,1s7.29-.72,7.42-1.5c0-.28.07-.48.08-.63-1-.07-5.48-.38-7.67-.38s-6.09.32-7,.4a2.57,2.57,0,0,0,.11,1.13"/><path class="cls-5" d="M58.87,72.73a11.84,11.84,0,0,0-.13-1.32h-.08c0,.15-.05.59-.1.87-.13.77-.37,1.5-7.42,1.5s-6.89-.59-7.1-1a3.74,3.74,0,0,1-.1-1.36h-.06c-.06.2-.14.71-.21,1-.14.48-1.71,2.06,7.1,2.06s8.13-1.18,8.1-1.73"/><path class="cls-5" d="M51.09,68.93a47.63,47.63,0,0,0-7.36.52V71.2h.21c1-.08,4.9-.4,7-.4s6.7.31,7.67.37h.18V69.44a56.83,56.83,0,0,0-7.75-.52"/><polygon class="cls-2" points="53.59 64.29 53.59 64.29 53.59 64.29 53.59 64.29 54.22 62.34 54.22 62.34 54.21 62.35 54.21 62.35 54.22 62.34 52.16 62.54 51.04 60.83 51.04 60.83 51.04 60.83 51.04 60.83 51.04 60.83 49.93 62.54 47.87 62.34 47.87 62.34 47.87 62.34 48.5 64.29 48.5 64.29 47.07 65.76 47.08 65.76 48.99 66.49 48.99 66.49 49.27 68.52 49.27 68.52 51.04 67.46 52.81 68.52 52.82 68.52 53.09 66.49 55.01 65.76 53.59 64.29"/><path class="cls-1" d="M91.6,72.48a.7.7,0,0,0-.73.46.78.78,0,0,0,0,.14.67.67,0,0,0,0,.25.69.69,0,0,0,.59.52.68.68,0,0,0,.46-.11.7.7,0,0,0,.24-.27.7.7,0,0,0-.54-1"/><path class="cls-1" d="M97.86,74.05l-.27-.46.18-.08-.37-1h0a3.31,3.31,0,0,1-.06-.43c0-.16,0-.3,0-.36h0a3.32,3.32,0,0,0-.08-.43l0-.19s0-.08,0-.12,0-.24,0-.37v-.07h0a4.14,4.14,0,0,0-.06-.65,6.07,6.07,0,0,0-5.27-5.21,7.12,7.12,0,0,0-3.45.38h0a3.72,3.72,0,0,0-.54.26l-.31.17.66,1.61-.06,0h-.07l-.05,0h0l0,0h0l-.09.07h0l-.1.08h0l-.08.06h0l-.1.08h0l-.1.09h0l-.1.1h0l-.09.09,0,0h0l-.08.09,0,0h0l-.06.07-.05.07h0l0,0a4.22,4.22,0,0,0-.47.74,7.34,7.34,0,0,0-.7,2.48l-.7-.07-.28,1.86h0l-1.32.29.38.14a7.11,7.11,0,0,0,2.51.47,12.88,12.88,0,0,0,2.72-.28l.52.08.93.13a1.31,1.31,0,0,0,1,.46,1.45,1.45,0,0,0,1.1-.47h0a1.3,1.3,0,0,0,.22-.27c.37.14,1,.37,1.71.59h0a8.79,8.79,0,0,0,1,.28h.05a9.13,9.13,0,0,0,.94.16c.28,0,.54,0,.78.06s.48,0,.73,0h.43v0Zm-9.63-8.38a2.39,2.39,0,0,1,.39-.18l.19-.07.1,0,.1,0h2.91l.15,0a6.24,6.24,0,0,1,3.74,2.51A5.84,5.84,0,0,0,92,65.82h-2.2l-.09,0h-.28l-.26.08-.06,0a4.34,4.34,0,0,0-.54.25h0ZM85.75,73.9a8.58,8.58,0,0,1-1.28-.27l.34-.11,1.2.22c.45.07,1.48.15,1.48.15a14.44,14.44,0,0,1-1.75,0m4.26,0-.16,0h0l-2.32-.35-2.2-.36-.16,0,.19-1.36.53.05c.43,0,1.16.1,1.72.12l2.74.12h.4a1.55,1.55,0,0,0-.51.79,1.49,1.49,0,0,0,.14,1.07Zm2.6-.57a1.06,1.06,0,0,1-.14.42,1.07,1.07,0,0,1-.25.29l0,0,0,0,0,0h0l-.11.09h0l0,0,0,0h0l-.16.08h0l-.06,0h0a1.22,1.22,0,0,1-.34,0h-.17l-.09,0h0l-.05,0h0l-.05,0h0l0,0,0,0-.05,0h0l-.07,0h0l0,0,0,0a1.05,1.05,0,0,1-.28-.46,1.07,1.07,0,0,1,0-.37s0,0,0-.06a1.09,1.09,0,0,1,2.16.24M91.9,67a4.77,4.77,0,0,0-2.83.55,5.1,5.1,0,0,0-2.51,4h-.15A6.71,6.71,0,0,1,87,69.3a4.51,4.51,0,0,1,1.84-1.85,5.3,5.3,0,0,1,2.57-.66,6.19,6.19,0,0,1,.64,0A4.72,4.72,0,0,1,95,68.27a4.36,4.36,0,0,1,1.49,3v.06c0,.09,0,.2,0,.32a4.28,4.28,0,0,0,.15,1h0l-.22,0h0c0-.08,0-.2-.07-.35a6.22,6.22,0,0,1-.13-.89A3.34,3.34,0,0,0,96,70a5,5,0,0,0-4.09-3m2,6.7-.47,0H93.4a.57.57,0,0,1-.41-.11.17.17,0,0,1-.06-.12h0s0-.07,0-.19a1,1,0,0,0,0-.21V73h.74c.41,0,.78,0,1.09,0,.79-.05,2.27-.22,2.29-.22l.14,0,0,0,0,0,.18.44-.16,0a7.6,7.6,0,0,1-1.45.31c-.55.06-1.31.08-1.87.1m2.32.71a8.27,8.27,0,0,1-1.5-.35,13.1,13.1,0,0,0,1.42-.1c.36-.06.73-.16.9-.21l.06,0,.06,0s.21.29.36.49a3.25,3.25,0,0,1,.2.33s-.7,0-1.5-.13"/><path class="cls-1" d="M85.62,72.1l-.1.72,2,.34c.56.1,1.78.27,2.28.35a2.29,2.29,0,0,1,.06-.75,2.71,2.71,0,0,1,.13-.39l-2.46-.11c-.69,0-1.6-.11-2-.14"/><path class="cls-1" d="M92,64l.27-.2a1.57,1.57,0,0,0,.48-1l-.08.17a.25.25,0,0,1-.25.16.39.39,0,0,1-.14,0l-.07,0,0-.07a1.82,1.82,0,0,0,.17-1.18,2.35,2.35,0,0,0-.49-.77,3.82,3.82,0,0,1-.08.68.88.88,0,0,1-.41.48c-.26.19-.52.39-.46.83a1.68,1.68,0,0,0,.15.5l.14.28L91,63.66A2.53,2.53,0,0,1,90.11,62c-.15-1,.49-1.39,1.07-1.76.36-.23.7-.46.77-.78a6,6,0,0,0,.17-1.57v-.18l.13.12a5.36,5.36,0,0,1,1.36,1.79,3.47,3.47,0,0,1-.29,2.16.8.8,0,0,0,.24-.29,4,4,0,0,0,.25-.62l.08-.27.07.28a4.11,4.11,0,0,1,.07,1,2,2,0,0,1-.81,1.63,2.35,2.35,0,0,1-.92.39Zm.93-1.84v.29a2.43,2.43,0,0,1-.38,1.29,2.57,2.57,0,0,0,.61-.3,2.35,2.35,0,0,0,.73-2.24c0,.1-.09.23-.16.36a.86.86,0,0,1-.51.45l-.16,0,.08-.15a3.67,3.67,0,0,0,.37-2.25,4.9,4.9,0,0,0-1.19-1.61,6.44,6.44,0,0,1-.17,1.44c-.09.38-.46.61-.84.87-.56.37-1.14.75-1,1.61a2.54,2.54,0,0,0,.61,1.35,2.12,2.12,0,0,1-.05-.26,1,1,0,0,1,.52-1c.17-.13.32-.24.35-.4a3.58,3.58,0,0,0,.08-.83V60.7l.13.14a3,3,0,0,1,.65,1,1.88,1.88,0,0,1-.14,1.2.1.1,0,0,0,.11-.07c.08-.18.25-.48.26-.5Z"/></svg>