<?xml version="1.0" encoding="utf-8"?>
<!-- Generator: Adobe Illustrator 21.0.0, SVG Export Plug-In . SVG Version: 6.00 Build 0)  -->
<svg version="1.1" id="Capa_1" xmlns="http://www.w3.org/2000/svg" xmlns:xlink="http://www.w3.org/1999/xlink" x="0px" y="0px"
	 viewBox="0 0 1001 1001" style="enable-background:new 0 0 1001 1001;" xml:space="preserve">
<style type="text/css">
	.st0{fill:none;stroke:#40474F;stroke-width:0.999;stroke-miterlimit:10;stroke-opacity:0;}
	.st1{fill:#40474F;}
	.st2{fill:none;stroke:#40474F;stroke-miterlimit:10;}
	.st3{enable-background:new    ;}
</style>
<rect x="0.5" y="0.5" class="st2" width="1000" height="1000"/>
<path class="st1" d="M713.4,482H519V287.6c0-10.2-8.3-18.5-18.5-18.5s-18.5,8.3-18.5,18.5V482H287.6c-10.2,0-18.5,8.3-18.5,18.5
	c0,10.2,8.3,18.5,18.5,18.5H482v194.4c0,10.2,8.3,18.5,18.5,18.5s18.5-8.3,18.5-18.5V519h194.4c10.2,0,18.5-8.3,18.5-18.5
	C731.9,490.3,723.6,482,713.4,482z"/>
</svg>
