<?xml version="1.0" encoding="utf-8"?>
<!-- Generator: Adobe Illustrator 21.0.0, SVG Export Plug-In . SVG Version: 6.00 Build 0)  -->
<svg version="1.1" id="Capa_1" xmlns="http://www.w3.org/2000/svg" xmlns:xlink="http://www.w3.org/1999/xlink" x="0px" y="0px"
	 viewBox="0 0 1000 1000" style="enable-background:new 0 0 1000 1000;" xml:space="preserve">
<style type="text/css">
	.st0{fill:none;stroke:#40474F;stroke-width:0.999;stroke-miterlimit:10;stroke-opacity:0;}
	.st1{fill:#40474F;}
	.st2{fill:none;stroke:#40474F;stroke-miterlimit:10;}
	.st3{enable-background:new    ;}
</style>
<g>
	<rect x="0.5" y="0.5" class="st0" width="999" height="999"/>
	<g>
		<g>
			<path class="st1" d="M288.1,514.3c-4.7,0-9.5-1.8-13.1-5.4c-7.2-7.2-7.2-19,0-26.2l212.4-212.4c6.9-6.9,19.2-6.9,26.2,0
				l211.5,211.5c7.2,7.2,7.2,19,0,26.2s-18.9,7.2-26.2,0L500.5,309.6L301.2,508.9C297.5,512.5,292.8,514.3,288.1,514.3z"/>
		</g>
		<g>
			<path class="st1" d="M661.4,734.9h-128V560.1h-66.3v174.3H338.5V486.9c16.3-18.6,37-7.2,37,8.9v201.6H430V523h140.4v174.8h54
				v-211c16.3-18.6,37-7.2,37,8.9V734.9z"/>
		</g>
	</g>
</g>
</svg>
