<?xml version="1.0" encoding="utf-8"?>
<!-- Generator: Adobe Illustrator 21.0.0, SVG Export Plug-In . SVG Version: 6.00 Build 0)  -->
<svg version="1.1" id="Capa_1" xmlns="http://www.w3.org/2000/svg" xmlns:xlink="http://www.w3.org/1999/xlink" x="0px" y="0px"
	 viewBox="0 0 1000 1000" style="enable-background:new 0 0 1000 1000;" xml:space="preserve">
<style type="text/css">
	.st0{fill:none;stroke:#40474F;stroke-width:0.999;stroke-miterlimit:10;stroke-opacity:0;}
	.st1{fill:#40474F;}
	.st2{fill:none;stroke:#40474F;stroke-miterlimit:10;}
	.st3{enable-background:new    ;}
</style>
<rect class="st2" width="1000" height="1000"/>
<path class="st1" d="M632.4,610.1c5.8,5.8,5.8,15.1,0,20.9c-5.8,5.8-15.1,5.8-20.9,0L499.1,518.7L388.5,629.3
	c-5.8,5.8-15.1,5.8-20.9,0s-5.8-15.1,0-20.9l109.2-109.2L367.6,390c-5.8-5.8-5.8-15.1,0-20.9s15.1-5.8,20.9,0l112.3,112.3
	l110.6-110.6c5.8-5.8,15.1-5.8,20.9,0s5.8,15.1,0,20.9L523.2,500.9L632.4,610.1z"/>
<g>
	<path class="st1" d="M499.8,735.3c-7.9,0-15.8-0.4-23.8-1.2c-53.3-5.3-103.8-29.3-142.3-67.8c-38.5-38.5-62.6-89-67.8-142.3
		c-7-70.9,17.7-140.3,67.7-190.4c50.1-50.1,119.5-74.8,190.4-67.7c53.3,5.3,103.8,29.3,142.3,67.8c38.5,38.5,62.6,89,67.8,142.3
		c7,70.9-17.7,140.3-67.7,190.4C621.9,710.9,562.2,735.3,499.8,735.3z M500.3,286.6c-56.7,0-110.8,22.2-151.2,62.5
		c-45.4,45.4-67.8,108.4-61.4,172.8c4.8,48.3,26.6,94.1,61.5,129c34.9,34.9,80.7,56.8,129,61.5c7.2,0.7,14.4,1.1,21.6,1.1
		c56.7,0,110.9-22.2,151.2-62.5c45.4-45.4,67.8-108.4,61.4-172.8c-4.8-48.3-26.6-94.1-61.5-129c-34.9-34.9-80.7-56.8-129-61.5l0,0
		C514.6,286.9,507.4,286.6,500.3,286.6z"/>
</g>
</svg>
