<?xml version="1.0" encoding="utf-8"?>
<!-- Generator: Adobe Illustrator 21.0.0, SVG Export Plug-In . SVG Version: 6.00 Build 0)  -->
<svg version="1.1" id="Capa_1" xmlns="http://www.w3.org/2000/svg" xmlns:xlink="http://www.w3.org/1999/xlink" x="0px" y="0px"
	 viewBox="0 0 1001 1001" style="enable-background:new 0 0 1001 1001;" xml:space="preserve">
<style type="text/css">
	.st0{fill:none;stroke:#40474F;stroke-width:0.999;stroke-miterlimit:10;stroke-opacity:0;}
	.st1{fill:#40474F;}
	.st2{fill:none;stroke:#40474F;stroke-miterlimit:10;}
	.st3{enable-background:new    ;}
</style>
<rect x="1" y="1" class="st0" width="999" height="999"/>
<path class="st1" d="M705.2,678.8L580,553.6c22.1-27.7,35.3-62.7,35.3-100.8c0-89.5-72.8-162.4-162.4-162.4
	c-89.5,0-162.4,72.8-162.4,162.4s72.8,162.4,162.4,162.4c38.1,0,73.1-13.3,100.8-35.3l125.2,125.2c3.6,3.6,8.4,5.4,13.1,5.4
	c4.7,0,9.5-1.8,13.1-5.4C712.4,697.7,712.4,686,705.2,678.8z M453,578.1c-69.1,0-125.3-56.2-125.3-125.3S383.9,327.5,453,327.5
	s125.3,56.2,125.3,125.3S522.1,578.1,453,578.1z"/>
</svg>
