<?xml version="1.0" encoding="utf-8"?>
<!-- Generator: Adobe Illustrator 21.0.0, SVG Export Plug-In . SVG Version: 6.00 Build 0)  -->
<svg version="1.1" id="Capa_1" xmlns="http://www.w3.org/2000/svg" xmlns:xlink="http://www.w3.org/1999/xlink" x="0px" y="0px"
	 viewBox="0 0 1001 1001" style="enable-background:new 0 0 1001 1001;" xml:space="preserve">
<style type="text/css">
	.st0{fill:none;stroke:#40474F;stroke-width:0.999;stroke-miterlimit:10;stroke-opacity:0;}
	.st1{fill:#40474F;}
	.st2{fill:none;stroke:#40474F;stroke-miterlimit:10;}
	.st3{enable-background:new    ;}
</style>
<rect x="0.5" y="0.5" class="st2" width="1000" height="1000"/>
<g>
	<g>
		<path class="st1" d="M627.8,734H313.7V325.5h186.9v-36.7H295.3c-10.1,0-18.3,8.2-18.3,18.3v445.2c0,10.1,8.2,18.3,18.3,18.3h350.8
			c10.1,0,18.3-8.2,18.3-18.3v-300h-36.7L627.8,734L627.8,734z"/>
	</g>
	<path class="st1" d="M699.9,254.4c-32.1-32.1-84.1-32.1-116.2,0s-32.1,84.1,0,116.2s84.1,32.1,116.2,0S732,286.4,699.9,254.4z
		 M654.4,367.6c0,6.9-5.6,12.6-12.6,12.6s-12.6-5.6-12.6-12.6V325h-42.6c-6.9,0-12.6-5.6-12.6-12.6c0-6.9,5.6-12.6,12.6-12.6h42.6
		v-42.6c0-6.9,5.6-12.6,12.6-12.6s12.6,5.6,12.6,12.6v42.6H697c6.9,0,12.6,5.6,12.6,12.6c0,6.9-5.6,12.6-12.6,12.6h-42.6V367.6z"/>
</g>
</svg>
