<?xml version="1.0" encoding="utf-8"?>
<!-- Generator: Adobe Illustrator 21.0.0, SVG Export Plug-In . SVG Version: 6.00 Build 0)  -->
<svg version="1.1" id="Capa_1" xmlns="http://www.w3.org/2000/svg" xmlns:xlink="http://www.w3.org/1999/xlink" x="0px" y="0px"
	 viewBox="0 0 1000 1000" style="enable-background:new 0 0 1000 1000;" xml:space="preserve">
<style type="text/css">
	.st0{fill:none;stroke:#40474F;stroke-width:0.999;stroke-miterlimit:10;stroke-opacity:0;}
	.st1{fill:#40474F;}
	.st2{fill:none;stroke:#40474F;stroke-miterlimit:10;}
	.st3{enable-background:new    ;}
</style>
<path class="st1" d="M0,0v1000h1000V0H0z M682.7,631.5H317.3c-9.9,0-17.8-8-17.8-17.8c0-9.9,8-17.8,17.8-17.8h365.3
	c9.8,0,17.8,8,17.8,17.8C700.5,623.5,692.5,631.5,682.7,631.5z M682.7,517.8H317.3c-9.9,0-17.8-8-17.8-17.8c0-9.9,8-17.8,17.8-17.8
	h365.3c9.8,0,17.8,8,17.8,17.8C700.5,509.8,692.5,517.8,682.7,517.8z M682.7,404.1H317.3c-9.9,0-17.8-8-17.8-17.8
	c0-9.9,8-17.8,17.8-17.8h365.3c9.8,0,17.8,8,17.8,17.8C700.5,396.2,692.5,404.1,682.7,404.1z"/>
</svg>
